#!OML:ASF Y:\EmotionMaleHayes\Project 1\Capture day 1\Session 1\Male1.ASF
:FULLY-SPECIFIED
:DEGREES
1247
root -28.0079 17.0841 0.855647 -760.082 90.4103 -39.5226
lowerback 8.67692 1.77085 -1.71747
upperback 3.08506 2.28837 -0.528095
thorax -1.7107 1.17653 0.189494
lowerneck -22.0934 2.11725 5.1443
upperneck 20.7753 2.42366 -4.445
head 10.4253 1.00846 -2.06648
rclavicle -8.29926e-015 3.97569e-015
rhumerus -17.5834 17.3387 -70.9406
rradius 64.7372
rwrist -17.4517
rhand -21.6575 -33.4166
rfingers 7.12502
rthumb 4.73944 -63.3436
lclavicle -8.29926e-015 3.97569e-015
lhumerus -40.1685 -6.46152 76.9392
lradius 25.7433
lwrist -3.7287
lhand -26.2394 -30.7021
lfingers 7.12502
lthumb 0.314512 -0.722545
rfemur 7.33669 -6.64419 17.0075
rtibia 8.86025
rfoot -19.7841 -4.81182
rtoes -8.30829
lfemur 5.87773 2.95323 -17.9593
ltibia 10.3632
lfoot -16.5815 7.344
ltoes -6.54055
1248
root -28.0128 17.0884 0.866023 -730.075 90.4477 -9.54924
lowerback 8.52188 1.76114 -1.51842
upperback 3.06079 2.29364 -0.489047
thorax -1.64462 1.17851 0.122581
lowerneck -22.0815 2.04362 5.16862
upperneck 20.8638 2.37755 -4.66932
head 10.456 0.963235 -2.15946
rclavicle 2.59662e-014 -7.15625e-015
rhumerus -17.4745 17.3658 -71.3307
rradius 64.7713
rwrist -17.4191
rhand -21.7032 -33.3719
rfingers 7.12502
rthumb 4.69538 -63.2998
lclavicle 2.59662e-014 -7.15625e-015
lhumerus -40.1317 -6.34518 77.0294
lradius 26.1988
lwrist -3.153
lhand -24.7475 -28.9902
lfingers 7.12502
lthumb 1.75545 0.982366
rfemur 7.35301 -6.60551 17.352
rtibia 8.75099
rfoot -19.8448 -4.96774
rtoes -8.18468
lfemur 6.07431 2.66682 -17.7698
ltibia 9.86164
lfoot -16.4423 7.49027
ltoes -5.85973
1249
root -28.0209 17.092 0.859878 -751.355 90.7496 -31.0362
lowerback 8.2446 1.72904 -1.61893
upperback 2.98085 2.24147 -0.648714
thorax -1.57073 1.1514 0.0273259
lowerneck -21.9799 1.99563 5.16327
upperneck 20.8784 2.35858 -4.81479
head 10.4433 0.93848 -2.21403
rclavicle 1.87106e-014 7.95139e-015
rhumerus -17.4599 17.6596 -71.6018
rradius 65.0458
rwrist -17.2654
rhand -21.1182 -33.0894
rfingers 7.12502
rthumb 5.26024 -63.0041
lclavicle 1.87106e-014 7.95139e-015
lhumerus -39.8032 -6.00062 76.9564
lradius 26.2445
lwrist -2.97352
lhand -24.5132 -28.6086
lfingers 7.12502
lthumb 1.98177 1.36195
rfemur 7.17446 -7.36758 16.7705
rtibia 8.77241
rfoot -19.7867 -4.38722
rtoes -7.26718
lfemur 6.06354 2.26754 -18.4043
ltibia 9.3725
lfoot -16.3427 7.61801
ltoes -4.34474
1250
root -28.0288 17.0948 0.858258 -766.432 91.0735 -46.2081
lowerback 8.12305 1.73489 -1.8888
upperback 2.90111 2.22496 -0.811433
thorax -1.58899 1.14264 0.0148565
lowerneck -21.9034 1.99556 5.18487
upperneck 20.9087 2.38521 -4.9169
head 10.4434 0.941837 -2.25062
rclavicle -2.78299e-015 -9.93923e-015
rhumerus -17.4096 18.0016 -71.887
rradius 65.1831
rwrist -17.2562
rhand -20.4374 -32.7726
rfingers 7.12502
rthumb 5.91753 -62.67
lclavicle -2.78299e-015 -9.93923e-015
lhumerus -39.7078 -5.76894 76.9858
lradius 26.577
lwrist -2.42722
lhand -24.7363 -28.8597
lfingers 7.12502
lthumb 1.76629 1.11278
rfemur 7.14122 -8.02498 16.1154
rtibia 8.73493
rfoot -19.6321 -3.92963
rtoes -7.00136
lfemur 6.10974 2.20199 -18.9732
ltibia 8.98753
lfoot -16.1655 7.56176
ltoes -3.58853
1251
root -28.0338 17.0962 0.863931 -775.678 91.4914 -55.4987
lowerback 8.04363 1.75233 -2.27019
upperback 2.8188 2.21486 -1.01343
thorax -1.63556 1.13778 0.0221442
lowerneck -21.8702 1.96316 5.19336
upperneck 21.0437 2.33503 -4.86966
head 10.4828 0.927441 -2.24428
rclavicle -1.94312e-014 -1.37161e-014
rhumerus -17.4599 18.1928 -72.365
rradius 65.1403
rwrist -17.3621
rhand -20.2115 -32.4083
rfingers 7.12502
rthumb 6.13562 -62.2994
lclavicle -1.94312e-014 -1.37161e-014
lhumerus -39.7806 -5.73939 77.0621
lradius 27.1234
lwrist -1.91652
lhand -24.9002 -28.947
lfingers 7.12502
lthumb 1.60796 1.02665
rfemur 7.24476 -8.36858 15.4724
rtibia 8.52742
rfoot -19.5034 -3.78509
rtoes -7.14421
lfemur 6.12218 2.32916 -19.4821
ltibia 8.8236
lfoot -15.989 7.37229
ltoes -4.35315
1252
root -28.0385 17.0957 0.870291 -780.275 91.6979 -60.191
lowerback 7.9106 1.80262 -2.53086
upperback 2.71989 2.25977 -1.09922
thorax -1.67099 1.15963 0.0777267
lowerneck -21.9419 1.95394 5.16463
upperneck 21.3753 2.34388 -4.85432
head 10.617 0.933634 -2.23673
rclavicle 9.0447e-015 -1.2921e-014
rhumerus -18.2844 18.5064 -72.8075
rradius 65.9701
rwrist -17.3618
rhand -20.2405 -32.2198
rfingers 7.12502
rthumb 6.10762 -62.1118
lclavicle 9.0447e-015 -1.2921e-014
lhumerus -39.777 -5.82444 77.334
lradius 27.6066
lwrist -1.34227
lhand -24.9325 -27.9839
lfingers 7.12502
lthumb 1.57674 1.99006
rfemur 7.29488 -8.34225 15.1946
rtibia 8.20325
rfoot -19.3737 -3.78186
rtoes -6.81241
lfemur 6.10031 2.45818 -19.7279
ltibia 8.65801
lfoot -15.7885 7.28897
ltoes -5.31859
1253
root -28.0452 17.0954 0.878073 -779.242 91.5485 -59.176
lowerback 7.79777 1.82544 -2.46219
upperback 2.7135 2.29865 -1.03552
thorax -1.61611 1.1778 0.105067
lowerneck -21.932 1.96605 5.03442
upperneck 21.3964 2.39934 -4.82168
head 10.624 0.952764 -2.19479
rclavicle 7.8023e-015 -2.22639e-014
rhumerus -18.5428 18.8389 -73.2337
rradius 66.2258
rwrist -17.1349
rhand -20.2559 -32.1719
rfingers 7.12502
rthumb 6.09279 -62.0643
lclavicle 7.8023e-015 -2.22639e-014
lhumerus -39.538 -5.5917 77.5412
lradius 27.9467
lwrist -0.733401
lhand -24.1769 -24.9635
lfingers 7.12502
lthumb 2.30649 5.00383
rfemur 7.3764 -8.07001 15.5072
rtibia 7.9286
rfoot -19.2671 -4.06854
rtoes -7.1528
lfemur 6.17083 2.51054 -19.4909
ltibia 8.43789
lfoot -15.6009 7.29198
ltoes -5.03109
1254
root -28.0511 17.0962 0.884556 -778.039 91.5657 -57.9282
lowerback 7.73672 1.83906 -2.53852
upperback 2.74263 2.31504 -0.988404
thorax -1.55741 1.18508 0.197448
lowerneck -21.9218 1.96039 5.02691
upperneck 21.3879 2.47121 -5.1055
head 10.6271 0.95048 -2.28517
rclavicle -2.20154e-014 1.47101e-014
rhumerus -18.6314 19.1172 -73.6497
rradius 66.2029
rwrist -17.1018
rhand -20.0581 -32.1996
rfingers 7.12502
rthumb 6.28371 -62.0864
lclavicle -2.20154e-014 1.47101e-014
lhumerus -39.3152 -5.14205 77.701
lradius 28.2686
lwrist -0.418943
lhand -25.3285 -29.3484
lfingers 7.12502
lthumb 1.19431 0.627973
rfemur 7.49349 -8.00583 15.5776
rtibia 7.8018
rfoot -19.1851 -4.19107
rtoes -6.95655
lfemur 6.12655 2.7441 -19.3684
ltibia 8.54888
lfoot -15.5744 6.97993
ltoes -4.1335
1255
root -28.0564 17.0937 0.888895 -777.559 91.5974 -57.3863
lowerback 7.79684 1.86586 -2.56994
upperback 2.67119 2.34277 -0.986543
thorax -1.66633 1.19943 0.210638
lowerneck -21.7002 1.87161 5.01361
upperneck 21.3173 2.41677 -5.31155
head 10.5594 0.90318 -2.36464
rclavicle -5.11871e-015 3.57812e-015
rhumerus -19.0905 19.3798 -74.2002
rradius 66.1772
rwrist -17.0782
rhand -19.907 -32.1875
rfingers 7.12502
rthumb 6.42963 -62.0699
lclavicle -5.11871e-015 3.57812e-015
lhumerus -39.3594 -4.92331 77.9493
lradius 28.682
lwrist -0.301618
lhand -23.1222 -21.7849
lfingers 7.12502
lthumb 3.32512 8.16889
rfemur 7.61013 -7.97588 15.5755
rtibia 7.67887
rfoot -19.1438 -4.15712
rtoes -5.89364
lfemur 6.5263 2.3207 -19.4937
ltibia 7.8346
lfoot -15.3151 7.32227
ltoes -3.23435
1256
root -28.0614 17.0888 0.894931 -774.456 91.4194 -54.2048
lowerback 7.74915 1.88437 -2.46043
upperback 2.67427 2.3778 -0.894118
thorax -1.63735 1.21598 0.243057
lowerneck -21.581 1.85422 5.0315
upperneck 21.2725 2.44056 -5.49529
head 10.5252 0.895351 -2.42954
rclavicle 5.54112e-015 -6.16232e-015
rhumerus -19.5239 19.643 -74.6503
rradius 66.1107
rwrist -16.6042
rhand -19.2548 -31.7869
rfingers 7.12502
rthumb 7.05922 -61.6492
lclavicle 5.54112e-015 -6.16232e-015
lhumerus -39.1616 -4.66126 78.2146
lradius 28.9271
lwrist -0.173767
lhand -23.8841 -21.951
lfingers 7.12502
lthumb 2.58934 8.01301
rfemur 7.78266 -7.83769 15.8609
rtibia 7.43082
rfoot -19.1616 -4.24796
rtoes -5.24918
lfemur 6.70891 2.51799 -19.117
ltibia 7.63056
lfoot -15.1331 7.13948
ltoes -2.25072
1257
root -28.0644 17.0848 0.9014 -770.063 91.251 -49.7821
lowerback 7.71227 1.91387 -2.27812
upperback 2.62993 2.42926 -0.871528
thorax -1.65773 1.24143 0.16003
lowerneck -21.5643 1.77271 5.05215
upperneck 21.4902 2.36115 -5.58987
head 10.598 0.851819 -2.48259
rclavicle 2.17918e-014 -2.80286e-014
rhumerus -20.0385 20.0992 -75.3464
rradius 66.1735
rwrist -17.1667
rhand -19.7124 -32.0817
rfingers 7.12502
rthumb 6.61743 -61.9583
lclavicle 2.17918e-014 -2.80286e-014
lhumerus -38.8828 -4.78277 78.5226
lradius 29.0958
lwrist 0.203533
lhand -26.9738 -32.0522
lfingers 7.12502
lthumb -0.394797 -2.07285
rfemur 7.97627 -7.7747 16.1321
rtibia 7.07849
rfoot -19.0348 -4.31605
rtoes -4.99344
lfemur 6.81838 2.78019 -18.7297
ltibia 7.48203
lfoot -14.9986 6.91321
ltoes -1.4311
1258
root -28.0654 17.0829 0.906169 -761.653 91.0843 -41.337
lowerback 7.66839 1.92937 -2.05242
upperback 2.60146 2.46647 -0.825926
thorax -1.65655 1.25957 0.0783856
lowerneck -21.6131 1.77493 4.9812
upperneck 21.5765 2.356 -5.45851
head 10.6357 0.859474 -2.42525
rclavicle 3.44891e-014 -1.0138e-014
rhumerus -20.3157 20.4044 -76.0276
rradius 65.8408
rwrist -17.2181
rhand -19.5055 -31.9584
rfingers 7.12502
rthumb 6.81715 -61.8287
lclavicle 3.44891e-014 -1.0138e-014
lhumerus -38.3723 -4.8945 78.8998
lradius 28.8296
lwrist 0.431068
lhand -23.8837 -22.389
lfingers 7.12502
lthumb 2.58966 7.57503
rfemur 8.19317 -7.73012 16.471
rtibia 6.73691
rfoot -18.8449 -4.45471
rtoes -5.48029
lfemur 7.01013 2.78819 -18.3939
ltibia 7.20587
lfoot -14.8444 6.89552
ltoes -2.37527
1259
root -28.0643 17.0843 0.907614 -750.876 90.8881 -30.4081
lowerback 7.67195 1.93928 -1.84874
upperback 2.63309 2.49717 -0.713242
thorax -1.62314 1.27446 0.0782399
lowerneck -21.6469 1.77983 5.08887
upperneck 21.7737 2.42752 -5.78493
head 10.7247 0.862819 -2.55405
rclavicle -1.36913e-014 -4.17448e-015
rhumerus -20.2845 20.7824 -76.6163
rradius 65.0575
rwrist -16.9631
rhand -18.9456 -31.6255
rfingers 7.12502
rthumb 7.35764 -61.4775
lclavicle -1.36913e-014 -4.17448e-015
lhumerus -38.4978 -5.10034 79.4385
lradius 29.6882
lwrist 0.841989
lhand -23.2657 -20.2501
lfingers 7.12502
lthumb 3.18651 9.70585
rfemur 8.48147 -7.51603 16.8526
rtibia 6.45807
rfoot -18.7248 -4.67762
rtoes -6.08691
lfemur 7.43954 2.35758 -18.1789
ltibia 6.72323
lfoot -14.7068 7.3452
ltoes -3.6142
1260
root -28.0645 17.0841 0.907829 -743.49 90.7826 -22.8654
lowerback 7.70517 1.99696 -1.67139
upperback 2.65344 2.5873 -0.699204
thorax -1.61504 1.31983 -0.0154138
lowerneck -21.4295 1.7104 5.02264
upperneck 21.6242 2.35865 -5.7949
head 10.6241 0.827896 -2.55397
rclavicle 1.27719e-014 -9.34288e-015
rhumerus -21.0538 20.871 -77.2457
rradius 64.9228
rwrist -16.5587
rhand -18.0235 -31.2084
rfingers 7.12502
rthumb 8.24761 -61.0274
lclavicle 1.27719e-014 -9.34288e-015
lhumerus -38.6189 -5.68133 80.0271
lradius 30.4968
lwrist 1.15895
lhand -26.3042 -28.3101
lfingers 7.12502
lthumb 0.251975 1.66944
rfemur 8.72312 -7.29928 17.0798
rtibia 6.2564
rfoot -18.6206 -4.91447
rtoes -6.65114
lfemur 7.86463 1.95541 -18.1107
ltibia 6.22774
lfoot -14.6271 7.76655
ltoes -3.16964
